<svg xmlns="http://www.w3.org/2000/svg" width="24" height="24" 
        viewBox="0 0 24 24" fill="currentColor">
    <path d="M12 .297c-6.63 0-12 5.373-12 
            12 0 5.303 3.438 9.8 8.205 
            11.385.6.113.82-.258.82-.577 
            0-.285-.01-1.04-.015-2.04-3.338.724-4.042-1.61-4.042-1.61-.546-1.387-1.333-1.757-1.333-1.757-1.089-.745.083-.729.083-.729 
            1.205.084 1.838 1.236 1.838 1.236 
            1.07 1.835 2.809 1.305 3.495.998.108-.775.418-1.305.762-1.605-2.665-.3-5.466-1.334-5.466-5.931 
            0-1.31.469-2.381 1.236-3.221-.123-.303-.536-1.523.117-3.176 
            0 0 1.008-.322 3.301 1.23a11.52 
            11.52 0 013.003-.404c1.018.005 2.042.138 
            3.003.404 2.291-1.552 3.297-1.23 
            3.297-1.23.655 1.653.242 2.873.119 
            3.176.77.84 1.234 1.911 1.234 
            3.221 0 4.609-2.807 5.628-5.479 
            5.921.43.371.823 1.102.823 
            2.222 0 1.606-.015 2.896-.015 
            3.286 0 .319.216.694.825.576 
            4.765-1.587 8.199-6.082 
            8.199-11.383 0-6.627-5.373-12-12-12z"/>
</svg>
